# xmcd
# Track frame offsets:
# 150
# 9999
# 21153
# 31949
# 42824
# 54694
# 65159
# 75962
# 89065
# 99972
# 111242
# 127168
# 137508
# 150606
# 159180
# 173355
# 187408
# 200978
# 214201
# 227866
# 240439
# 255038
# 268870
# 281193
#
# Disc length: 3911 seconds
# Revision: 0
# Processed by: cddbd v1.5.2PL0 Copyright (c) Steve Scherf et al.
# Submitted via: VisiTrax 2.11.2.271 - For more info visit www.synapsa.com
#
DISCID=4d0f4518
DTITLE=John Lee Hooker - Charly Blues masterworks Volume 16
DYEAR=1900
DGENRE=
TTITLE0=Dimples
TTITLE1=Boom, Boom
TTITLE2=Maudie
TTITLE3=No Shoes
TTITLE4=I'm Mad Again
TTITLE5=She's Mine
TTITLE6=Send Me Your Pillow
TTITLE7=Don't Look Back
TTITLE8=Bottle Up And Go
TTITLE9=This Is Hip
TTITLE10=It Serves Me Right To Suffer
TTITLE11=Big Legs, Tight Skirt
TTITLE12=I'm Going Upstairs
TTITLE13=You Know I Love You
TTITLE14=Boogie Chillen'
TTITLE15=I'm In The Mood
TTITLE16=Crawlin' King Snake
TTITLE17=Boogie Boogie
TTITLE18=Hobo Blues
TTITLE19=Leave My Wife Alone
TTITLE20=Sugar Mama
TTITLE21=Louise
TTITLE22=High Priced Woman
TTITLE23=Walkin' The Boogie
EXTD=
EXTT0=
EXTT1=
EXTT2=
EXTT3=
EXTT4=
EXTT5=
EXTT6=
EXTT7=
EXTT8=
EXTT9=
EXTT10=
EXTT11=
EXTT12=
EXTT13=
EXTT14=
EXTT15=
EXTT16=
EXTT17=
EXTT18=
EXTT19=
EXTT20=
EXTT21=
EXTT22=
EXTT23=
PLAYORDER=
